<svg width="370" height="400" viewBox="0 0 370 400" fill="none" xmlns="http://www.w3.org/2000/svg">
  <defs>
    <linearGradient id="bar" x1="0" y1="0" x2="370" y2="66" gradientUnits="userSpaceOnUse">
      <stop stop-color="#5875C5"/>
      <stop offset="1" stop-color="#7085CC"/>
    </linearGradient>
    <filter id="menuShadow" x="-12" y="56" width="394" height="352" filterUnits="userSpaceOnUse" color-interpolation-filters="sRGB">
      <feDropShadow dx="0" dy="2" stdDeviation="3" flood-color="#000000" flood-opacity="0.24"/>
    </filter>
  </defs>

  <rect width="370" height="400" fill="#EEF3F6"/>
  <rect width="370" height="66" fill="url(#bar)"/>

  <rect x="0" y="2" width="118" height="50" rx="6" fill="#8FA3EA" opacity="0.72"/>
  <text x="16" y="35" font-family="-apple-system, BlinkMacSystemFont, 'SF Pro Display', Helvetica, Arial, sans-serif" font-size="25" font-weight="600" fill="white">Codex</text>

  <rect x="135" y="16" width="23" height="27" rx="3" fill="white" opacity="0.95"/>
  <rect x="142" y="12" width="9" height="8" rx="3" stroke="#EEF3FF" stroke-width="3"/>
  <line x1="141" y1="24" x2="152" y2="24" stroke="#5B70BE" stroke-width="2"/>

  <ellipse cx="210" cy="24" rx="15" ry="12" fill="white" opacity="0.95"/>
  <ellipse cx="225" cy="31" rx="12" ry="9" fill="white" opacity="0.95"/>
  <circle cx="205" cy="24" r="1.5" fill="#5B70BE"/>
  <circle cx="213" cy="24" r="1.5" fill="#5B70BE"/>
  <circle cx="221" cy="31" r="1.4" fill="#5B70BE"/>
  <circle cx="228" cy="31" r="1.4" fill="#5B70BE"/>

  <path d="M272 18H280V26" stroke="white" stroke-width="2" stroke-linecap="round"/>
  <path d="M280 18L270 28" stroke="white" stroke-width="2" stroke-linecap="round"/>
  <path d="M278 38H270V30" stroke="white" stroke-width="2" stroke-linecap="round"/>
  <path d="M270 38L280 28" stroke="white" stroke-width="2" stroke-linecap="round"/>

  <text x="337" y="26" font-family="-apple-system, BlinkMacSystemFont, 'SF Pro Text', Helvetica, Arial, sans-serif" font-size="17" font-weight="700" fill="white">1 KB</text>
  <text x="337" y="45" font-family="-apple-system, BlinkMacSystemFont, 'SF Pro Text', Helvetica, Arial, sans-serif" font-size="17" font-weight="700" fill="white">1 KB</text>

  <g filter="url(#menuShadow)">
    <rect x="-1" y="66" width="371" height="328" rx="10" fill="#EAF2F6"/>
    <rect x="-0.5" y="66.5" width="370" height="327" rx="9.5" stroke="#B9C4CA"/>
  </g>

  <text x="17" y="106" font-family="-apple-system, BlinkMacSystemFont, 'PingFang SC', 'Hiragino Sans GB', Helvetica, Arial, sans-serif" font-size="23" font-weight="700" fill="#252525">暂停提醒</text>
  <text x="17" y="151" font-family="-apple-system, BlinkMacSystemFont, 'PingFang SC', 'Hiragino Sans GB', Helvetica, Arial, sans-serif" font-size="23" font-weight="700" fill="#252525">测试提醒</text>
  <text x="17" y="196" font-family="-apple-system, BlinkMacSystemFont, 'PingFang SC', 'Hiragino Sans GB', Helvetica, Arial, sans-serif" font-size="23" font-weight="700" fill="#252525">调整提醒颜色...</text>
  <text x="17" y="240" font-family="-apple-system, BlinkMacSystemFont, 'PingFang SC', 'Hiragino Sans GB', Helvetica, Arial, sans-serif" font-size="25" font-weight="700" fill="#B5B8BA">当前颜色: #84C126</text>

  <line x1="16" y1="263" x2="340" y2="263" stroke="#D1D7DB" stroke-width="2"/>

  <text x="17" y="306" font-family="-apple-system, BlinkMacSystemFont, 'PingFang SC', 'Hiragino Sans GB', Helvetica, Arial, sans-serif" font-size="25" font-weight="700" fill="#B8BABC">快捷键: ^⌥⌘N</text>

  <line x1="16" y1="329" x2="340" y2="329" stroke="#D1D7DB" stroke-width="2"/>

  <text x="17" y="373" font-family="-apple-system, BlinkMacSystemFont, 'PingFang SC', 'Hiragino Sans GB', Helvetica, Arial, sans-serif" font-size="25" font-weight="700" fill="#252525">退出</text>
  <text x="294" y="372" font-family="-apple-system, BlinkMacSystemFont, 'SF Pro Text', Helvetica, Arial, sans-serif" font-size="24" font-weight="600" fill="#A9ABAD">⌘ Q</text>
</svg>
